<?xml version="1.0" encoding="UTF-8" standalone="no"?>
<svg
   xmlns:dc="http://purl.org/dc/elements/1.1/"
   xmlns:cc="http://creativecommons.org/ns#"
   xmlns:rdf="http://www.w3.org/1999/02/22-rdf-syntax-ns#"
   xmlns:svg="http://www.w3.org/2000/svg"
   xmlns="http://www.w3.org/2000/svg"
   width="210mm"
   height="297mm"
   id="svg3355"
   version="1.1">
 
  <defs
     id="defs33" />
  <path
     d="M 500.78443,662.59843 A 265.74803,265.74803 0 0 0 30.711629,662.59843"
     style="fill:none;stroke:#000000;stroke-linecap:round"
     id="path3406" />
  <path
     d="M 30.711629,910.62992 A 265.74803,265.74803 0 0 0 500.78443,910.62992"
     style="fill:none;stroke:#000000;stroke-linecap:round"
     id="path3408" />
  <path
     d="M 30.711629,910.62992 53.149606,910.62992"
     style="fill:none;stroke:#000000;stroke-linecap:round"
     id="path3410" />
  <path
     d="M 53.149606,910.62992 53.149606,662.59843"
     style="fill:none;stroke:#000000;stroke-linecap:round"
     id="path3412" />
  <path
     d="M 53.149606,662.59843 30.711629,662.59843"
     style="fill:none;stroke:#000000;stroke-linecap:round"
     id="path3414" />
  <path
     d="M 478.34646,910.62992 500.78443,910.62992"
     style="fill:none;stroke:#000000;stroke-linecap:round"
     id="path3416" />
  <path
     d="M 500.78443,662.59843 478.34646,662.59843"
     style="fill:none;stroke:#000000;stroke-linecap:round"
     id="path3418" />
  <path
     d="M 478.34646,662.59843 478.34646,910.62992"
     style="fill:none;stroke:#000000;stroke-linecap:round"
     id="path3420" />
  <path
     d="M 395.07874,834.44882 A 5.314961,5.314961 0 1 0 384.44882,834.44882 5.314961,5.314961 0 1 0 395.07874,834.44882 Z"
     style="fill:none;stroke:#000000;stroke-linecap:round"
     id="path3422" />
  <path
     d="M 395.07874,880.51181 A 5.314961,5.314961 0 1 0 384.44882,880.51181 5.314961,5.314961 0 1 0 395.07874,880.51181 Z"
     style="fill:none;stroke:#000000;stroke-linecap:round"
     id="path3424" />
  <path
     d="M 147.04724,834.44882 A 5.314961,5.314961 0 1 0 136.41732,834.44882 5.314961,5.314961 0 1 0 147.04724,834.44882 Z"
     style="fill:none;stroke:#000000;stroke-linecap:round"
     id="path3426" />
  <path
     d="M 147.04724,880.51181 A 5.314961,5.314961 0 1 0 136.41732,880.51181 5.314961,5.314961 0 1 0 147.04724,880.51181 Z"
     style="fill:none;stroke:#000000;stroke-linecap:round"
     id="path3428" />
  <path
     d="M 122.59843,602.36221 A 5.669295,5.669295 0 1 0 111.25984,602.36221 5.669295,5.669295 0 1 0 122.59843,602.36221 Z"
     style="fill:none;stroke:#000000;stroke-linecap:round"
     id="path3430" />
  <path
     d="M 420.23622,602.36221 A 5.669291,5.669291 0 1 0 408.89764,602.36221 5.669291,5.669291 0 1 0 420.23622,602.36221 Z"
     style="fill:none;stroke:#000000;stroke-linecap:round"
     id="path3432" />
  <path
     d="M 147.40157,981.49606 A 5.6692915,5.6692915 0 1 0 136.06299,981.49606 5.6692915,5.6692915 0 1 0 147.40157,981.49606 Z"
     style="fill:none;stroke:#000000;stroke-linecap:round"
     id="path3434" />
  <path
     d="M 395.43307,981.49606 A 5.6692915,5.6692915 0 1 0 384.09449,981.49606 5.6692915,5.6692915 0 1 0 395.43307,981.49606 Z"
     style="fill:none;stroke:#000000;stroke-linecap:round"
     id="path3436" />
  <path
     d="M 273.18898,556.29921 A 7.440945,7.440945 0 1 0 258.30709,556.29921 7.440945,7.440945 0 1 0 273.18898,556.29921 Z"
     style="fill:none;stroke:#000000;stroke-linecap:round"
     id="path3438" />
  <path
     d="M 273.18898,1016.9291 A 7.440945,7.440945 0 1 0 258.30709,1016.9291 7.440945,7.440945 0 1 0 273.18898,1016.9291 Z"
     style="fill:none;stroke:#000000;stroke-linecap:round"
     id="path3440" />
  <path
     d="M 218.26772,556.29921 A 5.669295,5.669295 0 1 0 206.92913,556.29921 5.669295,5.669295 0 1 0 218.26772,556.29921 Z"
     style="fill:none;stroke:#000000;stroke-linecap:round"
     id="path3442" />
  <path
     d="M 324.56693,556.29921 A 5.6692915,5.6692915 0 1 0 313.22835,556.29921 5.6692915,5.6692915 0 1 0 324.56693,556.29921 Z"
     style="fill:none;stroke:#000000;stroke-linecap:round"
     id="path3444" />
  <path
     d="M 218.26772,1016.9291 A 5.669295,5.669295 0 1 0 206.92913,1016.9291 5.669295,5.669295 0 1 0 218.26772,1016.9291 Z"
     style="fill:none;stroke:#000000;stroke-linecap:round"
     id="path3446" />
  <path
     d="M 324.56693,1016.9291 A 5.6692915,5.6692915 0 1 0 313.22835,1016.9291 5.6692915,5.6692915 0 1 0 324.56693,1016.9291 Z"
     style="fill:none;stroke:#000000;stroke-linecap:round"
     id="path3448" />
  <path
     d="M 211.18109,814.96063 A 5.6692915,5.6692915 0 1 0 199.84251,814.96063 5.6692915,5.6692915 0 0 0 211.18109,814.96063 Z"
     style="fill:none;stroke:#000000;stroke-linecap:round"
     id="path8520" />
  <path
     d="M 331.65353,814.96063 A 5.6692915,5.6692915 0 1 0 320.31495,814.96063 5.6692915,5.6692915 0 0 0 331.65353,814.96063 Z"
     style="fill:none;stroke:#000000;stroke-linecap:round"
     id="path8522" />
  <path
     d="M 211.18109,970.86618 A 5.6692915,5.6692915 0 1 0 199.84251,970.86618 5.6692915,5.6692915 0 0 0 211.18109,970.86618 Z"
     style="fill:none;stroke:#000000;stroke-linecap:round"
     id="path8524" />
  <path
     d="M 331.65353,970.86618 A 5.6692915,5.6692915 0 1 0 320.31495,970.86618 5.6692915,5.6692915 0 0 0 331.65353,970.86618 Z"
     style="fill:none;stroke:#000000;stroke-linecap:round"
     id="path8526" />
  <path
     d="M 271.41731,644.88188 A 5.669291,5.669291 0 1 0 260.07873,644.88188 5.669291,5.669291 0 0 0 271.41731,644.88188 Z"
     style="fill:none;stroke:#000000;stroke-linecap:round"
     id="path8506" />
  <path
     d="M 271.41731,751.18108 A 5.669291,5.669291 0 1 0 260.07873,751.18108 5.669291,5.669291 0 0 0 271.41731,751.18108 Z"
     style="fill:none;stroke:#000000;stroke-linecap:round"
     id="path8508" />
</svg>
